<?xml version="1.0" standalone="no"?>
<!DOCTYPE svg PUBLIC "-//W3C//DTD SVG 20010904//EN"
 "http://www.w3.org/TR/2001/REC-SVG-20010904/DTD/svg10.dtd">
<svg version="1.0" xmlns="http://www.w3.org/2000/svg"
 width="512.000000pt" height="512.000000pt" viewBox="0 0 512.000000 512.000000"
 preserveAspectRatio="xMidYMid meet">
<metadata>
Created by potrace 1.14, written by Peter Selinger 2001-2017
</metadata>
<g transform="translate(0.000000,512.000000) scale(0.100000,-0.100000)"
fill="#000000" stroke="none">
<path d="M2361 4859 c-197 -22 -408 -83 -590 -170 -200 -97 -329 -187 -489
-343 -172 -167 -282 -320 -382 -529 -123 -257 -180 -508 -180 -797 0 -387 118
-759 338 -1070 129 -181 342 -383 528 -498 100 -62 224 -125 232 -118 5 6 -24
595 -34 671 -6 46 -35 17 251 240 l167 130 -48 22 c-90 40 -96 40 -243 -26
-74 -34 -135 -61 -136 -61 -2 0 -6 16 -9 35 -5 25 -41 75 -126 176 -66 77
-120 143 -119 147 0 4 30 52 67 107 l67 100 242 3 242 2 3 -57 3 -57 168 179
168 178 -212 78 c-117 44 -214 77 -217 75 -2 -3 10 -28 27 -56 17 -28 31 -52
31 -55 0 -3 -101 -5 -225 -5 l-224 0 -110 163 c-125 183 -125 183 -96 334 43
228 148 426 315 592 204 205 460 317 750 328 150 6 230 -3 366 -42 388 -112
700 -445 788 -844 l17 -73 -149 -227 -150 -226 -181 -3 c-99 -1 -181 0 -181 4
0 4 14 31 31 61 27 47 29 54 13 49 -11 -3 -127 -46 -259 -95 l-240 -89 -3
-346 -2 -346 166 0 165 0 157 -122 c86 -67 188 -146 226 -177 l68 -55 -6 -111
c-13 -220 -16 -273 -26 -434 -6 -90 -8 -166 -6 -168 7 -7 120 49 211 104 667
401 1011 1190 854 1955 -45 221 -150 471 -276 660 -282 421 -730 709 -1233
793 -116 20 -394 27 -509 14z m1205 -2087 l71 -107 -56 -68 c-44 -53 -61 -67
-83 -67 -21 0 -28 5 -28 20 0 19 -7 20 -99 20 l-98 0 -142 149 c-77 82 -141
152 -141 155 0 3 114 6 253 6 l252 0 71 -108z"/>
<path d="M2450 2085 c0 -96 2 -175 3 -175 2 0 29 9 60 19 56 19 58 20 111 1
l53 -18 7 76 c3 41 6 119 6 174 l0 98 -120 0 -120 0 0 -175z"/>
<path d="M2281 2187 l-114 -52 6 -154 c3 -84 7 -155 9 -157 3 -2 54 13 115 33
l112 37 1 173 c0 95 -3 173 -7 172 -5 -1 -59 -24 -122 -52z"/>
<path d="M2725 2107 c-4 -73 -5 -150 -3 -171 l3 -39 100 -34 c54 -18 107 -35
117 -39 17 -5 18 5 18 154 l0 159 -82 38 c-46 20 -97 43 -114 51 l-32 13 -7
-132z"/>
<path d="M2003 2059 c-73 -34 -103 -54 -103 -66 -1 -43 61 -1231 66 -1259 3
-25 22 -43 105 -103 55 -40 103 -70 106 -67 3 3 -4 292 -16 643 -27 831 -31
903 -45 902 -6 0 -57 -23 -113 -50z"/>
<path d="M2996 1893 c-3 -120 -9 -270 -11 -333 -6 -141 -24 -689 -23 -710 0
-8 -3 -80 -7 -159 l-8 -144 34 23 c109 76 189 143 189 158 0 9 16 301 34 647
19 347 31 633 28 637 -9 9 -210 98 -221 98 -4 0 -11 -98 -15 -217z"/>
<path d="M2453 1357 c4 -198 7 -507 7 -687 l0 -327 55 -37 54 -38 51 37 50 37
0 126 c0 70 3 380 7 690 l6 563 -118 -2 -118 -1 6 -361z"/>
<path d="M2190 1463 c0 -72 27 -928 30 -940 0 -1 42 -32 93 -69 50 -37 98 -72
106 -78 12 -9 13 30 7 274 -3 157 -6 416 -7 575 0 160 -2 300 -6 313 -5 21 -9
22 -114 22 l-109 0 0 -97z"/>
<path d="M2719 1518 c-7 -444 -16 -1144 -14 -1146 2 -2 48 30 103 70 82 59
102 79 106 103 3 17 10 224 16 460 6 237 13 458 16 493 l6 62 -116 0 -116 0
-1 -42z"/>
</g>
</svg>
